<svg xmlns="http://www.w3.org/2000/svg" xmlns:xlink="http://www.w3.org/1999/xlink" xml:space="preserve" version="1.1" style="shape-rendering:geometricPrecision;text-rendering:geometricPrecision;image-rendering:optimizeQuality;" viewBox="0 0 60000 75000" x="0px" y="0px" fill-rule="evenodd" clip-rule="evenodd"><defs><style type="text/css">
   
    .fil0 {fill:blue;fill-rule:nonzero}
   
  </style></defs><g><path class="fil0" d="M26247.07 6365.56c0,-220.91 179.09,-400 400,-400 220.91,0 400,179.09 400,400 0,111.84 51.14,214.74 133.79,290.68 91.33,83.92 220.5,135.83 365.79,135.83 145.3,0 274.46,-51.91 365.79,-135.83 82.65,-75.94 133.79,-178.85 133.79,-290.68 0,-340.06 -151.82,-649.59 -397.27,-875.1 -254.13,-233.48 -608.19,-377.91 -1001.89,-377.91 -393.72,0 -747.77,144.43 -1001.9,377.9 -245.44,225.51 -397.27,535.04 -397.27,875.11 0,568.3 252.52,1084.47 660.75,1459.54 416.92,383.05 995.88,619.99 1638,619.99 642.12,0 1221.08,-236.94 1638,-619.99 408.23,-375.07 660.75,-891.24 660.75,-1459.54 0,-970.07 -406.22,-1728.29 -1075.63,-2257.51 -755.83,-597.54 -1846.78,-919.2 -3081.25,-941.66 -1820.72,-33.12 -3931.67,584.52 -5746.27,1925.59 -1495.4,1105.16 -2787.53,2702.63 -3548.07,4833.39 229.64,76.32 449.42,166.3 657.67,269.74 563.99,-1484.68 1443.65,-2649.62 2469.64,-3515.4 1278.64,-1078.96 2785.11,-1692.8 4191.49,-1881.82 136.45,-18.33 261.94,77.42 280.27,213.87 18.33,136.45 -77.42,261.94 -213.87,280.27 -1319.18,177.3 -2733.5,754.14 -3935.63,1768.54 -981.98,828.63 -1821.96,1949.69 -2352.47,3384.04 137.4,88.79 268.18,184.48 391.66,287.03 41.11,34.15 81.38,69.05 120.84,104.64 555.22,-963.34 1290.54,-1695.5 2098.18,-2218.21 982.54,-635.92 2072.6,-961.53 3075.95,-1016.41 137.52,-7.01 254.71,98.8 261.72,236.32 7.01,137.52 -98.8,254.71 -236.32,261.72 -921.82,50.42 -1924.51,350.36 -2829.87,936.33 -779.74,504.65 -1486.96,1221.87 -2007.89,2175.02 526.69,629.33 832.28,1432.05 832.28,2396.85 0,796.94 -334.7,1518.48 -875.83,2040.79 -536.86,518.21 -1276.95,838.74 -2092.98,838.74 -816.03,0 -1556.12,-320.53 -2092.98,-838.74 -541.13,-522.31 -875.83,-1243.85 -875.83,-2040.79 0,-568.7 238.86,-1083.61 625.03,-1456.35 381.91,-368.64 907.95,-596.66 1487.51,-596.66 579.56,0 1105.6,228.02 1487.51,596.66 386.17,372.74 625.03,887.65 625.03,1456.35 0,340.45 -143.02,648.75 -374.24,871.93 -226.95,219.07 -538.92,354.58 -882.03,354.58 -343.12,0 -655.08,-135.51 -882.04,-354.58 -231.21,-223.18 -374.23,-531.46 -374.23,-871.93 0,-220.91 179.09,-400 400,-400 220.91,0 400,179.09 400,400 0,116 48.68,220.99 127.35,296.93 82.94,80.05 199.14,129.58 328.92,129.58 129.77,0 245.98,-49.53 328.91,-129.58 78.68,-75.94 127.36,-180.94 127.36,-296.93 0,-344.23 -144.52,-655.84 -378.15,-881.35 -237.89,-229.62 -568.17,-371.66 -934.39,-371.66 -366.22,0 -696.5,142.04 -934.39,371.66 -233.63,225.51 -378.15,537.12 -378.15,881.35 0,572.47 240.35,1090.71 628.95,1465.79 392.84,379.19 937.18,613.74 1539.86,613.74 602.68,0 1147.02,-234.55 1539.86,-613.74 388.6,-375.08 628.95,-893.32 628.95,-1465.79 0,-974.13 -386.82,-1734.32 -1024.27,-2263.76 -714.66,-593.57 -1746.22,-913.1 -2913.5,-935.41 -276.34,-5.28 -560.21,4.51 -850.15,28.72 -2006.14,167.6 -3913.51,1053.48 -5329.13,2438.52 -1411.48,1380.99 -2333.62,3257.42 -2374.78,5410.39 -4.08,213.8 1.18,435.82 16.19,666.03 282.27,-68.48 572.53,-120.99 870.17,-156.7 499.5,-1210.23 1247.93,-2119.77 2097.8,-2759.82 998.08,-751.68 2137.11,-1132 3178.89,-1191.87 137.52,-7.54 255.15,97.83 262.69,235.35 7.54,137.52 -97.83,255.15 -235.35,262.69 -949.63,54.58 -1990.33,403.07 -2905.45,1092.27 -727.87,548.17 -1375.68,1311.79 -1834.8,2314.42 179.9,-8.53 362.16,-11.19 546.72,-7.66 1272.37,24.31 2412.94,386.01 3223.13,1058.93 775.21,643.86 1245.64,1559.36 1245.64,2724.07 0,756.39 -317.68,1441.22 -831.27,1936.97 -509.35,491.63 -1211.41,795.73 -1985.42,795.73 -774.01,0 -1476.07,-304.1 -1985.42,-795.73 -513.59,-495.75 -831.27,-1180.58 -831.27,-1936.97 0,-541.67 227.51,-1032.11 595.33,-1387.14 363.55,-350.92 864.23,-567.98 1415.8,-567.98 551.57,0 1052.24,217.06 1415.79,567.98 367.82,355.03 595.33,845.47 595.33,1387.14 0,326.95 -137.35,622.99 -359.38,837.33 -217.78,210.21 -517.06,340.24 -846.18,340.24 -329.12,0 -628.4,-130.03 -846.18,-340.24 -222.03,-214.34 -359.38,-510.38 -359.38,-837.33 0,-220.91 179.09,-400 400,-400 220.91,0 400,179.09 400,400 0,102.48 43.01,195.24 112.5,262.33 73.76,71.19 177.3,115.24 293.06,115.24 115.76,0 219.3,-44.05 293.06,-115.24 69.49,-67.09 112.5,-159.85 112.5,-262.33 0,-317.2 -133.16,-604.34 -348.45,-812.14 -219.53,-211.9 -524.45,-342.98 -862.67,-342.98 -338.22,0 -643.15,131.08 -862.68,342.98 -215.29,207.8 -348.45,494.94 -348.45,812.14 0,531.92 223.33,1013.45 584.39,1361.97 365.32,352.61 871.63,570.73 1432.3,570.73 560.67,0 1066.98,-218.12 1432.3,-570.73 361.06,-348.52 584.39,-830.05 584.39,-1361.97 0,-908.86 -360.67,-1617.93 -955.02,-2111.57 -668.13,-554.92 -1633.4,-853.67 -2726.25,-874.55 -1802.52,-34.45 -3357.61,579.07 -4515.99,1652.87 -1188.19,1101.44 -1965.64,2690.54 -2172.71,4566.5 -208.85,1892.03 277.19,3332.09 1121.2,4398.45 1087.6,1374.13 2775.98,2149.51 4349.96,2478.49 3076.97,643.14 6294.75,-351 8968.8,-1177.14 508.15,-157 997.78,-308.27 1411.56,-427.37 1606.38,-462.37 3467.2,-783.94 5166.78,-742.38 1429.98,34.96 2750.35,327.74 3726.76,1007.86 181.22,125.99 225.99,375.04 100,556.26 -125.99,181.22 -375.04,225.99 -556.26,100 -838.02,-583.72 -2007.07,-835.89 -3289.26,-867.24 -1607.73,-39.31 -3385.61,269.95 -4929.26,714.26 -481.62,138.63 -930.33,277.26 -1395.94,421.11 -2763.19,853.68 -6088.2,1880.95 -9365.68,1195.9 -1728.82,-361.35 -3592.6,-1224.76 -4812.46,-2765.99 -966.37,-1220.96 -1524.58,-2854.16 -1289.96,-4979.71 228.58,-2070.84 1095.56,-3833.12 2422.71,-5063.38 663.29,-614.86 1439.97,-1095.89 2307.85,-1415.64 -0.44,-3.98 -0.85,-7.96 -1.18,-11.97 -24.87,-297.83 -33.99,-599.82 -28.16,-904.97 45.47,-2378.87 1059.82,-4447.72 2612.28,-5966.65 1548.32,-1514.88 3632.45,-2483.65 5822.89,-2666.64 299.56,-25.02 609.28,-34.81 928.27,-28.72 395.52,7.56 778.96,45.9 1145.01,114.31 814.69,-2326.83 2219.83,-4070.28 3849.68,-5274.8 1962.19,-1450.15 4253,-2117.88 6233.77,-2081.85 1406.8,25.59 2667.46,405.94 3562.51,1113.54 106.19,83.96 207.21,172.33 302.75,265.05 814.05,-471.34 1687.09,-797.44 2586.44,-989.59 2015.05,-430.53 4166.08,-190.98 6081.68,591.07 1919.16,783.5 3607.43,2113.72 4692.87,3862.91 473.07,762.33 831.17,1602.87 1043.72,2510.92 361.54,-66.65 739.89,-104.1 1130.03,-111.56 318.99,-6.09 628.71,3.7 928.27,28.72 2190.44,182.99 4274.57,1151.76 5822.89,2666.64 1552.46,1518.93 2566.81,3587.78 2612.28,5966.65 5.83,305.15 -3.29,607.14 -28.16,904.97 -0.33,4.01 -0.74,7.99 -1.18,11.97 867.88,319.75 1644.56,800.78 2307.85,1415.64 1327.15,1230.26 2194.13,2992.54 2422.71,5063.38 234.62,2125.55 -323.59,3758.75 -1289.96,4979.71 -1219.86,1541.23 -3083.64,2404.64 -4812.46,2765.99 -3277.48,685.05 -6602.49,-342.22 -9365.68,-1195.9 -465.61,-143.85 -914.32,-282.48 -1395.94,-421.11 -1543.65,-444.31 -3321.53,-753.57 -4929.26,-714.26 -1282.19,31.35 -2451.24,283.52 -3289.26,867.24 -181.22,125.99 -430.27,81.22 -556.26,-100 -125.99,-181.22 -81.22,-430.27 100,-556.26 976.41,-680.12 2296.78,-972.9 3726.76,-1007.86 1699.58,-41.56 3560.4,280.01 5166.78,742.38 413.78,119.1 903.41,270.37 1411.56,427.37 2674.05,826.14 5891.83,1820.28 8968.8,1177.14 1573.98,-328.98 3262.36,-1104.36 4349.96,-2478.49 844.01,-1066.36 1330.05,-2506.42 1121.2,-4398.45 -207.07,-1875.96 -984.52,-3465.06 -2172.71,-4566.5 -1158.38,-1073.8 -2713.47,-1687.32 -4515.99,-1652.87 -1092.85,20.88 -2058.12,319.63 -2726.25,874.55 -594.35,493.64 -955.02,1202.71 -955.02,2111.57 0,531.92 223.33,1013.45 584.39,1361.97 365.32,352.61 871.63,570.73 1432.3,570.73 560.67,0 1066.98,-218.12 1432.3,-570.73 361.06,-348.52 584.39,-830.05 584.39,-1361.97 0,-317.2 -133.16,-604.34 -348.45,-812.14 -219.53,-211.9 -524.46,-342.98 -862.68,-342.98 -338.22,0 -643.14,131.08 -862.67,342.98 -215.29,207.8 -348.45,494.94 -348.45,812.14 0,102.48 43.01,195.24 112.5,262.33 73.76,71.19 177.3,115.24 293.06,115.24 115.76,0 219.3,-44.05 293.06,-115.24 69.49,-67.09 112.5,-159.85 112.5,-262.33 0,-220.91 179.09,-400 400,-400 220.91,0 400,179.09 400,400 0,326.95 -137.35,622.99 -359.38,837.33 -217.78,210.21 -517.06,340.24 -846.18,340.24 -329.12,0 -628.4,-130.03 -846.18,-340.24 -222.03,-214.34 -359.38,-510.38 -359.38,-837.33 0,-541.67 227.51,-1032.11 595.33,-1387.14 363.55,-350.92 864.22,-567.98 1415.79,-567.98 551.57,0 1052.25,217.06 1415.8,567.98 367.82,355.03 595.33,845.47 595.33,1387.14 0,756.39 -317.68,1441.22 -831.27,1936.97 -509.35,491.63 -1211.41,795.73 -1985.42,795.73 -774.01,0 -1476.07,-304.1 -1985.42,-795.73 -513.59,-495.75 -831.27,-1180.58 -831.27,-1936.97 0,-1164.71 470.42,-2080.2 1245.64,-2724.07 810.19,-672.92 1950.76,-1034.62 3223.13,-1058.93 184.56,-3.53 366.82,-0.88 546.72,7.66 -459.12,-1002.63 -1106.93,-1766.25 -1834.8,-2314.42 -915.12,-689.19 -1955.81,-1037.69 -2905.44,-1092.27 -137.52,-7.54 -242.89,-125.17 -235.35,-262.69 7.54,-137.52 125.17,-242.89 262.69,-235.35 1041.78,59.87 2180.8,440.2 3178.88,1191.87 849.87,640.05 1598.3,1549.59 2097.8,2759.82 297.63,35.73 587.91,88.2 870.17,156.7 15.01,-230.21 20.27,-452.23 16.19,-666.03 -41.16,-2152.97 -963.3,-4029.4 -2374.78,-5410.39 -1415.62,-1385.04 -3322.99,-2270.92 -5329.13,-2438.52 -289.94,-24.21 -573.81,-34 -850.15,-28.72 -1167.28,22.31 -2198.84,341.84 -2913.5,935.41 -637.45,529.44 -1024.27,1289.63 -1024.27,2263.76 0,572.47 240.35,1090.71 628.95,1465.79 392.84,379.19 937.18,613.74 1539.86,613.74 602.68,0 1147.02,-234.55 1539.86,-613.74 388.6,-375.08 628.95,-893.32 628.95,-1465.79 0,-344.23 -144.52,-655.84 -378.15,-881.35 -237.89,-229.62 -568.17,-371.66 -934.39,-371.66 -366.22,0 -696.5,142.04 -934.39,371.66 -233.63,225.51 -378.15,537.12 -378.15,881.35 0,115.99 48.68,220.99 127.36,296.93 82.93,80.05 199.14,129.58 328.91,129.58 129.78,0 245.98,-49.53 328.92,-129.58 78.67,-75.94 127.35,-180.93 127.35,-296.93 0,-220.91 179.09,-400 400,-400 220.91,0 400,179.09 400,400 0,340.47 -143.02,648.75 -374.23,871.93 -226.96,219.07 -538.92,354.58 -882.04,354.58 -343.11,0 -655.08,-135.51 -882.03,-354.58 -231.22,-223.18 -374.24,-531.48 -374.24,-871.93 0,-568.7 238.86,-1083.61 625.03,-1456.35 381.91,-368.64 907.95,-596.66 1487.51,-596.66 579.56,0 1105.6,228.02 1487.51,596.66 386.17,372.74 625.03,887.65 625.03,1456.35 0,796.94 -334.7,1518.48 -875.83,2040.79 -536.86,518.21 -1276.95,838.74 -2092.98,838.74 -816.03,0 -1556.12,-320.53 -2092.98,-838.74 -541.13,-522.31 -875.83,-1243.85 -875.83,-2040.79 0,-964.81 305.57,-1767.53 832.28,-2396.85 -520.93,-953.15 -1228.15,-1670.37 -2007.89,-2175.02 -905.36,-585.97 -1908.05,-885.91 -2829.87,-936.33 -137.52,-7.01 -243.33,-124.2 -236.32,-261.72 7.01,-137.52 124.2,-243.33 261.72,-236.32 1003.35,54.88 2093.41,380.49 3075.95,1016.41 807.64,522.71 1542.96,1254.87 2098.18,2218.21 39.47,-35.59 79.73,-70.49 120.84,-104.64 123.48,-102.56 254.26,-198.24 391.66,-287.03 -530.51,-1434.35 -1370.49,-2555.41 -2352.47,-3384.04 -1202.13,-1014.4 -2616.45,-1591.24 -3935.63,-1768.54 -136.45,-18.33 -232.2,-143.82 -213.87,-280.27 18.33,-136.45 143.82,-232.2 280.27,-213.87 1406.38,189.02 2912.85,802.86 4191.49,1881.82 1025.99,865.78 1905.65,2030.72 2469.64,3515.4 213.5,-106.03 439.08,-197.96 675.01,-275.48 -192.13,-829.1 -517.39,-1595.12 -947.59,-2288.38 -992.07,-1598.72 -2544.71,-2818.43 -4314.75,-3541.05 -1773.61,-724.08 -3760.2,-946.95 -5616.06,-550.43 -777.9,166.2 -1532.16,440.87 -2237.15,832.62 361.29,557.42 564.21,1223.69 564.21,1993.17 0,801.09 -351.64,1524.73 -920.13,2047.04 -559.82,514.35 -1330.27,832.49 -2178.62,832.49 -848.35,0 -1618.8,-318.14 -2178.62,-832.49 -568.49,-522.31 -920.13,-1245.95 -920.13,-2047.04 0,-572.86 250.95,-1089.86 656.65,-1462.61 397.04,-364.77 942.59,-590.4 1542.52,-590.4 599.91,0 1145.47,225.63 1542.51,590.41 405.7,372.74 656.65,889.74 656.65,1462.6 0,344.62 -150.26,655 -393.17,878.18 -234.23,215.21 -554.9,348.33 -906.41,348.33 -351.52,0 -672.18,-133.12 -906.41,-348.33 -242.91,-223.18 -393.17,-533.55 -393.17,-878.18zm2063.86 24455.13c-81.98,-204.51 17.36,-436.77 221.87,-518.75 204.51,-81.98 436.77,17.36 518.75,221.87l4374.45 10936.12c81.98,204.51 -17.36,436.77 -221.87,518.75 -204.51,81.98 -436.77,-17.36 -518.75,-221.87l-4374.45 -10936.12zm17108.83 3556.36c-72.48,-207.96 37.35,-435.33 245.31,-507.81 207.96,-72.48 435.33,37.35 507.81,245.31l2346.02 6671.26c72.48,207.96 -37.35,435.33 -245.31,507.81 -43.43,15.14 -87.71,22.3 -131.25,22.3l0 1.14 -1292.74 0 3634.69 7111.34c100.1,195.88 22.44,435.84 -173.44,535.94 -158.8,81.15 -346.56,45.46 -465.3,-75.32l-0.33 0.32 -9466.17 -9615.74c-154.46,-157.05 -152.36,-409.61 4.69,-564.07 80.4,-79.07 185.82,-117.1 290.3,-114.33l2309.34 -36.31 -2327.18 -4051.45c-109.59,-190.7 -43.83,-434.16 146.87,-543.75 190.7,-109.59 434.16,-43.83 543.75,146.87l2656.62 4624.98c37.25,59.5 59.26,129.6 60.44,204.91 3.45,220.05 -172.14,401.24 -392.19,404.69l-2070.72 32.56 6993.88 7104.39 -2734.87 -5350.83c-39.34,-61.93 -62.15,-135.4 -62.15,-214.2 0,-220.91 179.09,-400 400,-400l1381.13 0 -2159.2 -6140.01zm-29063.48 -1390.23c-72.48,-207.96 37.35,-435.33 245.31,-507.81 207.96,-72.48 435.33,37.35 507.81,245.31l2834.92 8061.49c72.48,207.96 -37.35,435.33 -245.31,507.81 -43.43,15.14 -87.71,22.3 -131.25,22.3l0 1.14 -1292.74 0 3634.69 7111.34c100.1,195.88 22.44,435.84 -173.44,535.94 -158.8,81.15 -346.56,45.46 -465.3,-75.32l-0.33 0.32 -9466.17 -9615.74c-154.46,-157.05 -152.36,-409.61 4.69,-564.07 80.4,-79.07 185.82,-117.1 290.3,-114.33l2309.34 -36.31 -2327.18 -4051.45c-109.59,-190.7 -43.83,-434.16 146.87,-543.75 190.7,-109.59 434.16,-43.83 543.75,146.87l2656.62 4624.98c37.25,59.5 59.26,129.6 60.44,204.91 3.45,220.05 -172.14,401.24 -392.19,404.69l-2070.72 32.56 6993.88 7104.39 -2734.87 -5350.83c-39.34,-61.93 -62.15,-135.4 -62.15,-214.2 0,-220.91 179.09,-400 400,-400l1381.13 0 -2648.1 -7530.24zm16607.97 1403.56c-75.93,-207.1 30.4,-436.57 237.5,-512.5 207.1,-75.93 436.57,30.4 512.5,237.5l3697.84 9999.27c75.93,207.1 -30.4,436.57 -237.5,512.5 -45.38,16.64 -91.83,24.52 -137.5,24.52l0 0.48 -2829.17 0 6070.54 14227.11c86.29,202.79 -8.15,437.15 -210.94,523.44 -169.43,72.09 -360.87,18.01 -469.61,-119.99l-16065.86 -18162.48c-145.83,-164.82 -130.44,-416.67 34.38,-562.5 74.17,-65.63 165.98,-98.59 257.81,-99.99l4648.75 -73.11 -2465.92 -4623.6c-103.55,-194.16 -30.1,-435.51 164.06,-539.06 194.16,-103.55 435.51,-30.1 539.06,164.06l2768.4 5190.74c31.77,56.12 50.35,120.77 51.43,189.79 3.45,220.05 -172.14,401.24 -392.19,404.69l-4434.92 69.74 13874.41 15685.04 -5329.76 -12490.99c-28.23,-54.81 -44.18,-116.99 -44.18,-182.89 0,-220.91 179.09,-400 400,-400l2859.94 0 -3499.07 -9461.77zm-548.77 -7388.89c-135.37,25.89 -266.11,-62.87 -292,-198.24 -25.89,-135.37 62.87,-266.11 198.24,-292 713.59,-136.49 1426.49,-344.94 2136.4,-625.33 711.18,-280.89 1414.85,-631.4 2108.67,-1051.47 117.57,-71.19 270.61,-33.59 341.8,83.98 71.19,117.57 33.59,270.61 -83.98,341.8 -724.75,438.8 -1453.15,802.31 -2182.89,1090.53 -736.83,291.02 -1479.72,507.94 -2226.24,650.73zm-947.95 -9782.59c-184.3,-184.3 -438.99,-298.31 -720.31,-298.31 -281.32,0 -536,114.01 -720.3,298.31 -184.3,184.3 -298.31,438.99 -298.31,720.31 0,281.32 114.01,536 298.31,720.3 184.3,184.3 438.98,298.31 720.3,298.31 281.32,0 536.01,-114.01 720.31,-298.31 184.3,-184.3 298.31,-438.98 298.31,-720.3 0,-281.32 -114.01,-536.01 -298.31,-720.31zm114.91 -1065.67c98.09,-22.44 203.8,-7.75 294.23,46.54 2332.46,399.88 4641.34,1519.22 6856.28,3358.12 394.2,327.27 785.39,677.41 1173.19,1050.37 32.54,18.32 63.05,41.51 90.41,69.64 21.74,22.35 40.33,46.59 55.78,72.19 617.27,604.12 1225.76,1266.33 1823.8,1986.68 140.66,169.13 117.57,420.28 -51.56,560.94 -169.13,140.66 -420.28,117.57 -560.94,-51.56 -515.04,-620.36 -1037.47,-1195.77 -1566.19,-1726.22 -460.4,431.57 -926.85,832.23 -1398.59,1201.9 -572.52,448.65 -1152.71,850.58 -1739.26,1205.7 -734.04,444.42 -1469.86,811.84 -2205.15,1102.25 -744.87,294.19 -1496.76,513.65 -2253.2,658.34 -2078.97,397.66 -4174.58,223.51 -6237.29,-522.44 -1948.8,-704.76 -3864.6,-1920.13 -5704.96,-3645.75 -528.72,530.45 -1051.16,1105.85 -1566.2,1726.22 -140.66,169.13 -391.81,192.22 -560.94,51.56 -169.13,-140.66 -192.22,-391.81 -51.56,-560.94 1020.1,-1228.71 2070.55,-2288.36 3143.18,-3178.88 2830.46,-2349.9 5814.32,-3524.87 8804.74,-3524.87 551.94,0 1103.66,40.16 1654.23,120.21zm1142.48 1049.42c20.78,39.04 40.76,78.57 59.92,118.57 197.12,411.51 307.53,870.04 307.53,1351.59 0,865.4 -350.81,1648.91 -917.97,2216.08 -567.17,567.16 -1350.68,917.97 -2216.08,917.97 -865.4,0 -1648.91,-350.81 -2216.08,-917.97 -567.16,-567.17 -917.97,-1350.68 -917.97,-2216.08 0,-423.79 85.01,-829.32 238.99,-1200.39 40.88,-98.51 86.71,-194.51 137.15,-287.72 -460.91,119.14 -920.78,268.49 -1379,448.14 -37.44,142.97 -67.77,289.51 -90.57,439.2 -32.19,211.3 -48.89,428.61 -48.89,650.77 0,1180.92 478.65,2250.05 1252.49,3023.88 773.83,773.84 1842.95,1252.49 3023.88,1252.49 1180.93,0 2250.05,-478.65 3023.88,-1252.49 773.84,-773.83 1252.49,-1842.96 1252.49,-3023.88 0,-200.98 -12.53,-392.44 -36.77,-573.87 -22.3,-166.89 -54.05,-330.16 -94.65,-489.2 -457.97,-182.63 -917.63,-334.98 -1378.35,-457.09zm2264.45 849.37c29.88,225.63 45.32,449.68 45.32,670.79 0,1401.75 -568.21,2670.85 -1486.87,3589.5 -918.65,918.66 -2187.74,1486.87 -3589.5,1486.87 -1401.76,0 -2670.85,-568.21 -3589.5,-1486.87 -918.66,-918.65 -1486.87,-2187.75 -1486.87,-3589.5 0,-237.22 16.49,-471.42 48.37,-701.44 -1114.46,535.43 -2216.64,1251.69 -3297.47,2149.02 -301.75,250.52 -601.84,515.13 -900.1,793.79 1751.54,1636.5 3565.69,2787.03 5403.08,3451.5 1924.35,695.91 3878.21,858.6 5815.41,488.06 703.66,-134.6 1407.57,-340.51 2109.44,-617.72 705.63,-278.7 1401.88,-625.31 2086.41,-1039.75 556.42,-336.88 1110.53,-721.08 1661.14,-1152.56 440.76,-345.38 879.47,-721.87 1315.53,-1129.44 -298.28,-278.69 -598.41,-543.34 -900.19,-793.88 -1060.38,-880.35 -2141.29,-1586.36 -3234.2,-2118.37zm-13056.19 -3524.84c-111.64,80.36 -267.3,55 -347.66,-56.64 -80.36,-111.64 -55,-267.3 56.64,-347.66 2682.21,-1936.86 5493.14,-2902.81 8307.25,-2897.83 2815.03,4.98 5625.45,980.56 8305.72,2926.72 111.64,80.89 136.56,236.99 55.67,348.63 -80.89,111.64 -236.99,136.56 -348.63,55.67 -2594.46,-1883.85 -5305.63,-2828.19 -8012.76,-2832.98 -2708.47,-4.79 -5420.82,929.91 -8016.23,2804.09zm-1109.82 2906.98c-121.67,111.96 -311.08,104.09 -423.04,-17.58 -111.96,-121.67 -104.09,-311.08 17.58,-423.04 3026.26,-2780.23 6271.91,-4168.66 9524.48,-4165.31 3252.73,3.35 6497.79,1398.23 9522.74,4184.57 121.67,111.96 129.54,301.37 17.58,423.04 -111.96,121.67 -301.37,129.54 -423.04,17.58 -2911.47,-2681.8 -6018.03,-4024.33 -9117.28,-4027.53 -3099.72,-3.2 -6206.88,1332.89 -9119.02,4008.27zm-1114.12 2906.37c-131.38,141.19 -352.36,149.15 -493.55,17.77 -141.19,-131.38 -149.15,-352.36 -17.77,-493.55 401.01,-431.45 806.39,-837.17 1215.59,-1217.1 3028.73,-2812.15 6270.66,-4217.57 9521.22,-4216.26 3250.7,1.31 6492.49,1409.32 9520.8,4223.97 409.5,380.62 815.11,786.97 1216.27,1219.02 131.38,141.19 123.42,362.17 -17.77,493.55 -141.19,131.38 -362.17,123.42 -493.55,-17.77 -389.79,-419.82 -783.55,-814.32 -1180.73,-1183.48 -2895.02,-2690.76 -5974.44,-4036.79 -9045.02,-4038.03 -3070.73,-1.24 -6150.29,1342.21 -9045.44,4030.32 -397.04,368.63 -790.56,762.51 -1180.05,1181.56zm27218.62 -7806.16c-136.45,-18.87 -231.76,-144.8 -212.89,-281.25 18.87,-136.45 144.8,-231.76 281.25,-212.89 1342.01,189.5 2779.27,804.62 3998.77,1885.73 1045.19,926.6 1930.78,2195.01 2459.19,3830.25 42.06,131.05 -30.08,271.41 -161.13,313.47 -131.05,42.06 -271.41,-30.08 -313.47,-161.13 -498.76,-1543.5 -1332.12,-2738.48 -2314.67,-3609.55 -1141.82,-1012.25 -2484.75,-1587.8 -3737.05,-1764.63zm-34350.5 -494.14c136.45,-18.87 262.38,76.44 281.25,212.89 18.87,136.45 -76.44,262.38 -212.89,281.25 -1252.3,176.83 -2595.23,752.38 -3737.05,1764.63 -982.55,871.07 -1815.91,2066.05 -2314.67,3609.55 -42.06,131.05 -182.42,203.19 -313.47,161.13 -131.05,-42.06 -203.19,-182.42 -161.13,-313.47 528.41,-1635.24 1414,-2903.65 2459.19,-3830.25 1219.5,-1081.11 2656.76,-1696.23 3998.77,-1885.73z"/></g><text x="0" y="60015" fill="#40E0D0" font-size="5px" font-weight="bold" font-family="'Helvetica Neue', Helvetica, Arial-Unicode, Arial, Sans-serif">Created by Olena Panasovska</text><text x="0" y="60020" fill="#40E0D0" font-size="5px" font-weight="bold" font-family="'Helvetica Neue', Helvetica, Arial-Unicode, Arial, Sans-serif">from the Noun Project</text></svg>